<svg width="45" height="30" viewBox="0 0 45 30" fill="none" xmlns="http://www.w3.org/2000/svg">
<path d="M21 30V0H9.11927C6.25077 0 4.01376 0.699469 2.40826 2.09841C0.802752 3.49735 0 5.52157 0 8.17108C0 10.8418 0.802752 12.8766 2.40826 14.2755C4.01376 15.6745 6.25077 16.374 9.11927 16.374H16.344V30H21ZM9.11927 3.65632H16.344V12.7176H9.11927C7.72783 12.7176 6.6682 12.3467 5.94037 11.6048C5.19113 10.8418 4.81651 9.6972 4.81651 8.17108C4.81651 6.66616 5.19113 5.54277 5.94037 4.80091C6.6682 4.03785 7.72783 3.65632 9.11927 3.65632Z" fill="black"/>
<path d="M24 -3.8147e-06L24 30L35.8807 30C38.7492 30 40.9862 29.3005 42.5917 27.9016C44.1972 26.5027 45 24.4784 45 21.8289C45 19.1582 44.1972 17.1234 42.5917 15.7245C40.9862 14.3255 38.7492 13.626 35.8807 13.626L28.656 13.626L28.656 -3.00062e-06L24 -3.8147e-06ZM35.8807 26.3437L28.656 26.3437L28.656 17.2824L35.8807 17.2824C37.2722 17.2824 38.3318 17.6533 39.0596 18.3952C39.8089 19.1582 40.1835 20.3028 40.1835 21.8289C40.1835 23.3338 39.8089 24.4572 39.0596 25.1991C38.3318 25.9622 37.2722 26.3437 35.8807 26.3437Z" fill="black"/>
</svg>
