<svg width="32" height="32" viewBox="0 0 32 32" fill="none" xmlns="http://www.w3.org/2000/svg">
<path d="M22.6666 24C23.3739 24 24.0522 24.2809 24.5523 24.781C25.0524 25.2811 25.3333 25.9594 25.3333 26.6667C25.3333 27.3739 25.0524 28.0522 24.5523 28.5523C24.0522 29.0524 23.3739 29.3333 22.6666 29.3333C21.9594 29.3333 21.2811 29.0524 20.781 28.5523C20.2809 28.0522 20 27.3739 20 26.6667C20 25.1867 21.1866 24 22.6666 24ZM1.33331 2.66666H5.69331L6.94665 5.33332H26.6666C27.0203 5.33332 27.3594 5.4738 27.6095 5.72385C27.8595 5.9739 28 6.31303 28 6.66666C28 6.89332 27.9333 7.11999 27.84 7.33332L23.0666 15.96C22.6133 16.7733 21.7333 17.3333 20.7333 17.3333H10.8L9.59998 19.5067L9.55998 19.6667C9.55998 19.7551 9.5951 19.8398 9.65761 19.9024C9.72012 19.9649 9.80491 20 9.89331 20H25.3333V22.6667H9.33331C8.62607 22.6667 7.94779 22.3857 7.44769 21.8856C6.9476 21.3855 6.66665 20.7072 6.66665 20C6.66665 19.5333 6.78665 19.0933 6.98665 18.72L8.79998 15.4533L3.99998 5.33332H1.33331V2.66666ZM9.33331 24C10.0406 24 10.7188 24.2809 11.2189 24.781C11.719 25.2811 12 25.9594 12 26.6667C12 27.3739 11.719 28.0522 11.2189 28.5523C10.7188 29.0524 10.0406 29.3333 9.33331 29.3333C8.62607 29.3333 7.94779 29.0524 7.44769 28.5523C6.9476 28.0522 6.66665 27.3739 6.66665 26.6667C6.66665 25.1867 7.85331 24 9.33331 24ZM21.3333 14.6667L25.04 7.99999H8.18665L11.3333 14.6667H21.3333Z" fill="black"/>
</svg>
